M48
M71
T01C0.8
T02C1.0
T03C1.8
T04C3.0
%
G05
T01
X-014130Y-027300
X-017940Y-027300
X-017940Y-023500
X-014130Y-023500
X-014130Y-019680
X-020960Y-020320
X-020960Y-017780
X-028580Y-017780
X-028580Y-020320
X-031910Y-019680
X-031910Y-023500
X-031910Y-027300
X-031910Y-031120
X-028580Y-030480
X-035720Y-031120
X-035720Y-027300
X-035720Y-023500
X-035720Y-019680
X-020960Y-030480
T02
X-001900Y-013180
X-005400Y-013180
X-008890Y-013180
X-008890Y-007460
X-005400Y-007460
X-001900Y-007460
T03
X-020000Y-011750
X-024760Y-011750
X-029530Y-011750
X-029530Y-006670
X-024760Y-006670
X-020000Y-006670
T04
X-003180Y-041750
X-036990Y-041750
X-036990Y-003180
X-003180Y-003180
M30
