%FSLAX34Y34*%
%MOMM*%
%LNCOPPER_BOTTOM*%
G71*
G01*
%ADD10C, 2.300*%
%ADD11C, 0.222*%
%ADD12C, 5.400*%
%ADD13C, 2.900*%
%ADD14C, 1.400*%
%ADD15C, 3.900*%
%ADD16C, 2.400*%
%ADD17C, 0.900*%
%ADD18R, 1.420X1.620*%
%ADD19R, 2.000X1.700*%
%ADD20R, 1.700X2.000*%
%ADD21C, 0.633*%
%ADD22C, 1.667*%
%ADD23C, 0.833*%
%ADD24C, 0.433*%
%ADD25C, 0.667*%
%ADD26C, 0.340*%
%ADD27C, 1.900*%
%ADD28C, 5.000*%
%ADD29C, 2.500*%
%ADD30C, 1.000*%
%ADD31C, 3.500*%
%ADD32C, 2.000*%
%ADD33C, 0.500*%
%ADD34R, 1.020X1.220*%
%ADD35R, 1.600X1.300*%
%ADD36R, 1.300X1.600*%
%LPD*%
G36*
X0Y0D02*
X-400000Y0D01*
X-400000Y-450000D01*
X0Y-450000D01*
X0Y0D01*
G37*
%LPC*%
X-141288Y-273050D02*
G54D10*
D03*
X-179388Y-273050D02*
G54D10*
D03*
X-141288Y-234950D02*
G54D10*
D03*
X-179388Y-234950D02*
G54D10*
D03*
X-141288Y-196850D02*
G54D10*
D03*
X-319088Y-311150D02*
G54D10*
D03*
X-357188Y-311150D02*
G54D10*
D03*
X-319088Y-273050D02*
G54D10*
D03*
X-357188Y-273050D02*
G54D10*
D03*
X-319088Y-234950D02*
G54D10*
D03*
X-357188Y-234950D02*
G54D10*
D03*
X-319088Y-196850D02*
G54D10*
D03*
X-357188Y-196850D02*
G54D10*
D03*
G54D11*
X-182562Y-184150D02*
X-182562Y-166372D01*
X-175896Y-177483D01*
X-169229Y-166372D01*
X-169229Y-184150D01*
G54D11*
X-164340Y-184150D02*
X-164340Y-174150D01*
G54D11*
X-164340Y-170817D02*
X-164340Y-170817D01*
G54D11*
X-152785Y-174817D02*
X-155452Y-174150D01*
X-158118Y-174817D01*
X-159452Y-177039D01*
X-159452Y-181483D01*
X-158118Y-183706D01*
X-155452Y-184150D01*
X-152785Y-183706D01*
G54D11*
X-74612Y-109538D02*
X-74612Y-91760D01*
G54D11*
X-74612Y-103982D02*
X-63946Y-91760D01*
G54D11*
X-70612Y-100649D02*
X-63946Y-109538D01*
G54D11*
X-51056Y-108426D02*
X-53190Y-109538D01*
X-55856Y-109538D01*
X-58523Y-108426D01*
X-59056Y-106204D01*
X-59056Y-102426D01*
X-57723Y-100204D01*
X-55056Y-99538D01*
X-52390Y-100204D01*
X-51056Y-101760D01*
X-51056Y-103982D01*
X-59056Y-103982D01*
G54D11*
X-46168Y-99538D02*
X-40834Y-109538D01*
X-35501Y-99538D01*
G54D11*
X-40834Y-109538D02*
X-42168Y-112871D01*
X-43501Y-113982D01*
X-44834Y-113982D01*
X-31750Y-31750D02*
G54D12*
D03*
X-19050Y-74612D02*
G54D13*
D03*
X-53975Y-74612D02*
G54D13*
D03*
X-88900Y-74612D02*
G54D13*
D03*
X-19050Y-131762D02*
G54D13*
D03*
X-53975Y-131762D02*
G54D13*
D03*
X-88900Y-131762D02*
G54D13*
D03*
G54D14*
X-88900Y-74612D02*
X-88900Y-131762D01*
G36*
X-113582Y-51549D02*
X-101561Y-39528D01*
X-115703Y-25386D01*
X-127724Y-37407D01*
X-113582Y-51549D01*
G37*
G36*
X-100147Y-38114D02*
X-88126Y-26093D01*
X-102268Y-11951D01*
X-114289Y-23972D01*
X-100147Y-38114D01*
G37*
X-247650Y-66675D02*
G54D15*
D03*
X-247650Y-117475D02*
G54D15*
D03*
X-295275Y-66675D02*
G54D15*
D03*
X-295275Y-117475D02*
G54D15*
D03*
X-200025Y-66675D02*
G54D15*
D03*
X-200025Y-117475D02*
G54D15*
D03*
X-209550Y-304800D02*
G54D16*
D03*
X-209550Y-177800D02*
G54D16*
D03*
X-209550Y-203200D02*
G54D16*
D03*
X-285750Y-177800D02*
G54D16*
D03*
X-285750Y-203200D02*
G54D16*
D03*
X-285750Y-304800D02*
G54D16*
D03*
G54D17*
X-88900Y-85725D02*
X-88900Y-66675D01*
X-138112Y-17462D01*
X-309562Y-17462D01*
X-347662Y-55562D01*
X-347662Y-152400D01*
X-357188Y-161925D01*
X-357188Y-196850D01*
X-369888Y-31750D02*
G54D12*
D03*
X-31750Y-417512D02*
G54D12*
D03*
X-369888Y-417512D02*
G54D12*
D03*
G54D17*
X-247650Y-66675D02*
X-282575Y-34925D01*
X-309562Y-34925D01*
X-333375Y-58738D01*
X-333375Y-160338D01*
X-341312Y-168275D01*
X-341312Y-250825D01*
X-319088Y-273050D01*
G54D17*
X-247650Y-117475D02*
X-271462Y-93662D01*
X-271462Y-57150D01*
X-285750Y-42862D01*
X-306388Y-42862D01*
X-325438Y-61912D01*
X-325438Y-163512D01*
X-333375Y-171450D01*
X-333375Y-220662D01*
X-319088Y-234950D01*
G54D17*
X-200025Y-66675D02*
X-161925Y-66675D01*
X-134938Y-93662D01*
X-134938Y-155575D01*
X-117475Y-173038D01*
X-117475Y-249238D01*
X-141288Y-273050D01*
G54D17*
X-141288Y-234950D02*
X-125412Y-219075D01*
X-125412Y-176212D01*
X-142875Y-158750D01*
X-142875Y-133350D01*
X-158750Y-117475D01*
X-200025Y-117475D01*
G54D17*
X-295275Y-117475D02*
X-234950Y-177800D01*
X-209550Y-177800D01*
G54D17*
X-295275Y-66675D02*
X-317500Y-88900D01*
X-317500Y-146050D01*
X-285750Y-177800D01*
G54D17*
X-357188Y-311150D02*
X-339725Y-293688D01*
X-312738Y-293688D01*
X-285750Y-266700D01*
X-285750Y-203200D01*
G54D17*
X-357188Y-234950D02*
X-392112Y-269875D01*
X-392112Y-327025D01*
X-361950Y-357188D01*
X-193675Y-357188D01*
X-160338Y-323850D01*
X-160338Y-254000D01*
X-179388Y-234950D01*
G54D17*
X-357188Y-273050D02*
X-379412Y-295275D01*
X-379412Y-319088D01*
X-363538Y-334962D01*
X-198438Y-334962D01*
X-179388Y-315912D01*
X-179388Y-273050D01*
X-220745Y-244475D02*
G54D18*
D03*
G36*
X-203445Y-259275D02*
X-217645Y-259275D01*
X-217645Y-275475D01*
X-203445Y-275475D01*
X-203445Y-259275D01*
G37*
G36*
X-223845Y-259275D02*
X-238045Y-259275D01*
X-238045Y-275475D01*
X-223845Y-275475D01*
X-223845Y-259275D01*
G37*
G54D17*
X-209550Y-203200D02*
X-209550Y-233280D01*
X-220745Y-244475D01*
G54D17*
X-319088Y-311150D02*
X-274638Y-266700D01*
X-231775Y-266700D01*
X-248606Y-329740D02*
G54D18*
D03*
X-258806Y-306840D02*
G54D18*
D03*
X-238406Y-306840D02*
G54D18*
D03*
G54D17*
X-230945Y-267375D02*
X-230945Y-299379D01*
X-238406Y-306840D01*
X-259983Y-267334D02*
G54D19*
D03*
X-259983Y-248334D02*
G54D19*
D03*
X-238125Y-203200D02*
G54D20*
D03*
X-257125Y-203200D02*
G54D20*
D03*
G54D17*
X-209550Y-203200D02*
X-238125Y-203200D01*
G54D17*
X-257125Y-203200D02*
X-285750Y-203200D01*
G54D11*
X-299848Y-374335D02*
X-299848Y-388779D01*
X-298515Y-391001D01*
X-295848Y-392112D01*
X-293182Y-392112D01*
X-290515Y-391001D01*
X-289182Y-388779D01*
X-289182Y-374335D01*
G54D11*
X-284292Y-392112D02*
X-284292Y-374335D01*
X-277626Y-374335D01*
X-274959Y-375446D01*
X-273626Y-377668D01*
X-273626Y-388779D01*
X-274959Y-391001D01*
X-277626Y-392112D01*
X-284292Y-392112D01*
G54D11*
X-258070Y-377668D02*
X-258070Y-388779D01*
X-259403Y-391001D01*
X-262070Y-392112D01*
X-264736Y-392112D01*
X-267403Y-391001D01*
X-268736Y-388779D01*
X-268736Y-377668D01*
X-267403Y-375446D01*
X-264736Y-374335D01*
X-262070Y-374335D01*
X-259403Y-375446D01*
X-258070Y-377668D01*
G54D11*
X-242514Y-388779D02*
X-243847Y-391001D01*
X-246514Y-392112D01*
X-249180Y-392112D01*
X-251847Y-391001D01*
X-253180Y-388779D01*
X-253180Y-377668D01*
X-251847Y-375446D01*
X-249180Y-374335D01*
X-246514Y-374335D01*
X-243847Y-375446D01*
X-242514Y-377668D01*
G54D11*
X-237624Y-392112D02*
X-230958Y-374335D01*
X-224291Y-392112D01*
G54D11*
X-234958Y-385446D02*
X-226958Y-385446D01*
G54D11*
X-208736Y-374335D02*
X-208736Y-388779D01*
X-210069Y-391001D01*
X-212736Y-392112D01*
X-215402Y-392112D01*
X-218069Y-391001D01*
X-219402Y-388779D01*
G54D11*
X-188024Y-388779D02*
X-189357Y-391001D01*
X-192024Y-392112D01*
X-194690Y-392112D01*
X-197357Y-391001D01*
X-198690Y-388779D01*
X-198690Y-377668D01*
X-197357Y-375446D01*
X-194690Y-374335D01*
X-192024Y-374335D01*
X-189357Y-375446D01*
X-188024Y-377668D01*
G54D11*
X-183134Y-374335D02*
X-183134Y-392112D01*
X-176468Y-381001D01*
X-169801Y-392112D01*
X-169801Y-374335D01*
G54D11*
X-159756Y-392112D02*
X-159756Y-374335D01*
G54D11*
X-159756Y-386557D02*
X-149090Y-374335D01*
G54D11*
X-155756Y-383224D02*
X-149090Y-392112D01*
G54D11*
X-144200Y-383224D02*
X-141534Y-382112D01*
X-138334Y-382112D01*
X-136200Y-384335D01*
X-136200Y-392112D01*
G54D11*
X-136200Y-388779D02*
X-137534Y-386557D01*
X-140200Y-386112D01*
X-142867Y-386557D01*
X-144200Y-388779D01*
X-143667Y-391001D01*
X-141534Y-392112D01*
X-140200Y-392112D01*
X-139667Y-392112D01*
X-137534Y-391001D01*
X-136200Y-388779D01*
G54D11*
X-131312Y-392112D02*
X-131312Y-382112D01*
G54D11*
X-131312Y-384335D02*
X-128645Y-382112D01*
X-125978Y-382112D01*
G54D11*
X-121090Y-383224D02*
X-118423Y-382112D01*
X-115223Y-382112D01*
X-113090Y-384335D01*
X-113090Y-392112D01*
G54D11*
X-113090Y-388779D02*
X-114423Y-386557D01*
X-117090Y-386112D01*
X-119756Y-386557D01*
X-121090Y-388779D01*
X-120556Y-391001D01*
X-118423Y-392112D01*
X-117090Y-392112D01*
X-116556Y-392112D01*
X-114423Y-391001D01*
X-113090Y-388779D01*
G54D11*
X-105534Y-374335D02*
X-105534Y-391001D01*
X-104200Y-392112D01*
X-102867Y-391668D01*
G54D11*
X-108200Y-382112D02*
X-102867Y-382112D01*
G54D11*
X-97978Y-377668D02*
X-96645Y-375446D01*
X-93978Y-374335D01*
X-91312Y-374335D01*
X-88645Y-375446D01*
X-87312Y-377668D01*
X-87312Y-379890D01*
X-88645Y-382112D01*
X-91312Y-383224D01*
X-88645Y-384335D01*
X-87312Y-386557D01*
X-87312Y-388779D01*
X-88645Y-391001D01*
X-91312Y-392112D01*
X-93978Y-392112D01*
X-96645Y-391001D01*
X-97978Y-388779D01*
G54D11*
X-228411Y-419736D02*
X-225744Y-418625D01*
X-222544Y-418625D01*
X-220411Y-420847D01*
X-220411Y-428625D01*
G54D11*
X-220411Y-425292D02*
X-221744Y-423069D01*
X-224411Y-422625D01*
X-227078Y-423069D01*
X-228411Y-425292D01*
X-227878Y-427514D01*
X-225744Y-428625D01*
X-224411Y-428625D01*
X-223878Y-428625D01*
X-221744Y-427514D01*
X-220411Y-425292D01*
G54D11*
X-207522Y-428625D02*
X-207522Y-410847D01*
G54D11*
X-207522Y-421514D02*
X-208855Y-419292D01*
X-211522Y-418625D01*
X-214189Y-419292D01*
X-215522Y-421514D01*
X-215522Y-425958D01*
X-214189Y-428181D01*
X-211522Y-428625D01*
X-208855Y-428181D01*
X-207522Y-425958D01*
G54D11*
X-202633Y-419736D02*
X-199966Y-418625D01*
X-196766Y-418625D01*
X-194633Y-420847D01*
X-194633Y-428625D01*
G54D11*
X-194633Y-425292D02*
X-195966Y-423069D01*
X-198633Y-422625D01*
X-201300Y-423069D01*
X-202633Y-425292D01*
X-202100Y-427514D01*
X-199966Y-428625D01*
X-198633Y-428625D01*
X-198100Y-428625D01*
X-195966Y-427514D01*
X-194633Y-425292D01*
G54D11*
X-189744Y-418625D02*
X-189744Y-433069D01*
G54D11*
X-189744Y-425292D02*
X-188411Y-428181D01*
X-185744Y-428625D01*
X-183077Y-428181D01*
X-181744Y-425958D01*
X-181744Y-421514D01*
X-183077Y-419292D01*
X-185744Y-418625D01*
X-188411Y-419292D01*
X-189744Y-421958D01*
G54D11*
X-174188Y-410847D02*
X-174188Y-427514D01*
X-172855Y-428625D01*
X-171522Y-428181D01*
G54D11*
X-176855Y-418625D02*
X-171522Y-418625D01*
G54D11*
X-158633Y-427514D02*
X-160766Y-428625D01*
X-163433Y-428625D01*
X-166100Y-427514D01*
X-166633Y-425292D01*
X-166633Y-421514D01*
X-165300Y-419292D01*
X-162633Y-418625D01*
X-159966Y-419292D01*
X-158633Y-420847D01*
X-158633Y-423069D01*
X-166633Y-423069D01*
G54D11*
X-153744Y-428625D02*
X-153744Y-418625D01*
G54D11*
X-153744Y-420847D02*
X-151077Y-418625D01*
X-148411Y-418625D01*
%LPD*%
G54D21*
G36*
X-139048Y-194611D02*
X-147534Y-186126D01*
X-152012Y-190604D01*
X-143527Y-199089D01*
X-139048Y-194611D01*
G37*
G36*
X-143527Y-194611D02*
X-152012Y-203096D01*
X-147534Y-207574D01*
X-139048Y-199089D01*
X-143527Y-194611D01*
G37*
G36*
X-143527Y-199089D02*
X-135041Y-207574D01*
X-130563Y-203096D01*
X-139048Y-194611D01*
X-143527Y-199089D01*
G37*
G36*
X-139048Y-199089D02*
X-130563Y-190604D01*
X-135041Y-186126D01*
X-143527Y-194611D01*
X-139048Y-199089D01*
G37*
G54D21*
G36*
X-322254Y-196850D02*
X-322254Y-208850D01*
X-315921Y-208850D01*
X-315921Y-196850D01*
X-322254Y-196850D01*
G37*
G36*
X-319088Y-200017D02*
X-307088Y-200017D01*
X-307088Y-193683D01*
X-319088Y-193683D01*
X-319088Y-200017D01*
G37*
G36*
X-315921Y-196850D02*
X-315921Y-184850D01*
X-322254Y-184850D01*
X-322254Y-196850D01*
X-315921Y-196850D01*
G37*
G54D22*
G36*
X-25857Y-25857D02*
X-45303Y-6412D01*
X-57088Y-18197D01*
X-37643Y-37643D01*
X-25857Y-25857D01*
G37*
G36*
X-37643Y-25857D02*
X-57088Y-45303D01*
X-45303Y-57088D01*
X-25857Y-37643D01*
X-37643Y-25857D01*
G37*
G36*
X-37643Y-37643D02*
X-18197Y-57088D01*
X-6412Y-45303D01*
X-25857Y-25857D01*
X-37643Y-37643D01*
G37*
G36*
X-25857Y-37643D02*
X-6412Y-18197D01*
X-18197Y-6412D01*
X-37643Y-25857D01*
X-25857Y-37643D01*
G37*
G54D23*
G36*
X-14883Y-74612D02*
X-14883Y-59612D01*
X-23217Y-59612D01*
X-23217Y-74612D01*
X-14883Y-74612D01*
G37*
G36*
X-19050Y-70446D02*
X-34050Y-70446D01*
X-34050Y-78779D01*
X-19050Y-78779D01*
X-19050Y-70446D01*
G37*
G36*
X-23217Y-74612D02*
X-23217Y-89612D01*
X-14883Y-89612D01*
X-14883Y-74612D01*
X-23217Y-74612D01*
G37*
G36*
X-19050Y-78779D02*
X-4050Y-78779D01*
X-4050Y-70446D01*
X-19050Y-70446D01*
X-19050Y-78779D01*
G37*
G54D23*
G36*
X-49808Y-74612D02*
X-49808Y-59612D01*
X-58142Y-59612D01*
X-58142Y-74612D01*
X-49808Y-74612D01*
G37*
G36*
X-53975Y-70446D02*
X-68975Y-70446D01*
X-68975Y-78779D01*
X-53975Y-78779D01*
X-53975Y-70446D01*
G37*
G36*
X-58142Y-74612D02*
X-58142Y-89612D01*
X-49808Y-89612D01*
X-49808Y-74612D01*
X-58142Y-74612D01*
G37*
G36*
X-53975Y-78779D02*
X-38975Y-78779D01*
X-38975Y-70446D01*
X-53975Y-70446D01*
X-53975Y-78779D01*
G37*
G54D23*
G36*
X-14883Y-131762D02*
X-14883Y-116762D01*
X-23217Y-116762D01*
X-23217Y-131762D01*
X-14883Y-131762D01*
G37*
G36*
X-19050Y-127596D02*
X-34050Y-127596D01*
X-34050Y-135929D01*
X-19050Y-135929D01*
X-19050Y-127596D01*
G37*
G36*
X-23217Y-131762D02*
X-23217Y-146762D01*
X-14883Y-146762D01*
X-14883Y-131762D01*
X-23217Y-131762D01*
G37*
G36*
X-19050Y-135929D02*
X-4050Y-135929D01*
X-4050Y-127596D01*
X-19050Y-127596D01*
X-19050Y-135929D01*
G37*
G54D23*
G36*
X-49808Y-131762D02*
X-49808Y-116762D01*
X-58142Y-116762D01*
X-58142Y-131762D01*
X-49808Y-131762D01*
G37*
G36*
X-53975Y-127596D02*
X-68975Y-127596D01*
X-68975Y-135929D01*
X-53975Y-135929D01*
X-53975Y-127596D01*
G37*
G36*
X-58142Y-131762D02*
X-58142Y-146762D01*
X-49808Y-146762D01*
X-49808Y-131762D01*
X-58142Y-131762D01*
G37*
G36*
X-53975Y-135929D02*
X-38975Y-135929D01*
X-38975Y-127596D01*
X-53975Y-127596D01*
X-53975Y-135929D01*
G37*
G54D24*
G36*
X-102739Y-26564D02*
X-95315Y-33989D01*
X-92251Y-30925D01*
X-99676Y-23501D01*
X-102739Y-26564D01*
G37*
G36*
X-99676Y-26564D02*
X-93312Y-20201D01*
X-96375Y-17137D01*
X-102739Y-23501D01*
X-99676Y-26564D01*
G37*
G36*
X-99676Y-23501D02*
X-107100Y-16076D01*
X-110164Y-19140D01*
X-102739Y-26564D01*
X-99676Y-23501D01*
G37*
G54D25*
G36*
X-209550Y-301467D02*
X-222050Y-301467D01*
X-222050Y-308133D01*
X-209550Y-308133D01*
X-209550Y-301467D01*
G37*
G36*
X-212883Y-304800D02*
X-212883Y-317300D01*
X-206217Y-317300D01*
X-206217Y-304800D01*
X-212883Y-304800D01*
G37*
G36*
X-209550Y-308133D02*
X-197050Y-308133D01*
X-197050Y-301467D01*
X-209550Y-301467D01*
X-209550Y-308133D01*
G37*
G36*
X-206217Y-304800D02*
X-206217Y-292300D01*
X-212883Y-292300D01*
X-212883Y-304800D01*
X-206217Y-304800D01*
G37*
G54D25*
G36*
X-285750Y-301467D02*
X-298250Y-301467D01*
X-298250Y-308133D01*
X-285750Y-308133D01*
X-285750Y-301467D01*
G37*
G36*
X-289083Y-304800D02*
X-289083Y-317300D01*
X-282417Y-317300D01*
X-282417Y-304800D01*
X-289083Y-304800D01*
G37*
G36*
X-285750Y-308133D02*
X-273250Y-308133D01*
X-273250Y-301467D01*
X-285750Y-301467D01*
X-285750Y-308133D01*
G37*
G36*
X-282417Y-304800D02*
X-282417Y-292300D01*
X-289083Y-292300D01*
X-289083Y-304800D01*
X-282417Y-304800D01*
G37*
G54D22*
G36*
X-363995Y-25857D02*
X-383440Y-6412D01*
X-395226Y-18197D01*
X-375780Y-37643D01*
X-363995Y-25857D01*
G37*
G36*
X-375780Y-25857D02*
X-395226Y-45303D01*
X-383440Y-57088D01*
X-363995Y-37643D01*
X-375780Y-25857D01*
G37*
G36*
X-375780Y-37643D02*
X-356335Y-57088D01*
X-344550Y-45303D01*
X-363995Y-25857D01*
X-375780Y-37643D01*
G37*
G36*
X-363995Y-37643D02*
X-344550Y-18197D01*
X-356335Y-6412D01*
X-375780Y-25857D01*
X-363995Y-37643D01*
G37*
G54D22*
G36*
X-25857Y-411620D02*
X-45303Y-392174D01*
X-57088Y-403960D01*
X-37643Y-423405D01*
X-25857Y-411620D01*
G37*
G36*
X-37643Y-411620D02*
X-57088Y-431065D01*
X-45303Y-442850D01*
X-25857Y-423405D01*
X-37643Y-411620D01*
G37*
G36*
X-37643Y-423405D02*
X-18197Y-442850D01*
X-6412Y-431065D01*
X-25857Y-411620D01*
X-37643Y-423405D01*
G37*
G36*
X-25857Y-423405D02*
X-6412Y-403960D01*
X-18197Y-392174D01*
X-37643Y-411620D01*
X-25857Y-423405D01*
G37*
G54D22*
G36*
X-363995Y-411620D02*
X-383440Y-392174D01*
X-395226Y-403960D01*
X-375780Y-423405D01*
X-363995Y-411620D01*
G37*
G36*
X-375780Y-411620D02*
X-395226Y-431065D01*
X-383440Y-442850D01*
X-363995Y-423405D01*
X-375780Y-411620D01*
G37*
G36*
X-375780Y-423405D02*
X-356335Y-442850D01*
X-344550Y-431065D01*
X-363995Y-411620D01*
X-375780Y-423405D01*
G37*
G36*
X-363995Y-423405D02*
X-344550Y-403960D01*
X-356335Y-392174D01*
X-375780Y-411620D01*
X-363995Y-423405D01*
G37*
G54D26*
G36*
X-208845Y-267375D02*
X-208845Y-258775D01*
X-212245Y-258775D01*
X-212245Y-267375D01*
X-208845Y-267375D01*
G37*
G36*
X-210545Y-265675D02*
X-218145Y-265675D01*
X-218145Y-269075D01*
X-210545Y-269075D01*
X-210545Y-265675D01*
G37*
G36*
X-212245Y-267375D02*
X-212245Y-275975D01*
X-208845Y-275975D01*
X-208845Y-267375D01*
X-212245Y-267375D01*
G37*
G36*
X-210545Y-269075D02*
X-202945Y-269075D01*
X-202945Y-265675D01*
X-210545Y-265675D01*
X-210545Y-269075D01*
G37*
G54D26*
G36*
X-260506Y-306840D02*
X-260506Y-315440D01*
X-257106Y-315440D01*
X-257106Y-306840D01*
X-260506Y-306840D01*
G37*
G36*
X-258806Y-308540D02*
X-251206Y-308540D01*
X-251206Y-305140D01*
X-258806Y-305140D01*
X-258806Y-308540D01*
G37*
G36*
X-257106Y-306840D02*
X-257106Y-298240D01*
X-260506Y-298240D01*
X-260506Y-306840D01*
X-257106Y-306840D01*
G37*
G36*
X-258806Y-305140D02*
X-266406Y-305140D01*
X-266406Y-308540D01*
X-258806Y-308540D01*
X-258806Y-305140D01*
G37*
G54D24*
G36*
X-259983Y-250500D02*
X-249483Y-250500D01*
X-249483Y-246168D01*
X-259983Y-246168D01*
X-259983Y-250500D01*
G37*
G36*
X-257816Y-248334D02*
X-257816Y-239334D01*
X-262149Y-239334D01*
X-262149Y-248334D01*
X-257816Y-248334D01*
G37*
G36*
X-259983Y-246168D02*
X-270483Y-246168D01*
X-270483Y-250500D01*
X-259983Y-250500D01*
X-259983Y-246168D01*
G37*
X-141288Y-273050D02*
G54D27*
D03*
X-179388Y-273050D02*
G54D27*
D03*
X-141288Y-234950D02*
G54D27*
D03*
X-179388Y-234950D02*
G54D27*
D03*
X-141288Y-196850D02*
G54D27*
D03*
X-319088Y-311150D02*
G54D27*
D03*
X-357188Y-311150D02*
G54D27*
D03*
X-319088Y-273050D02*
G54D27*
D03*
X-357188Y-273050D02*
G54D27*
D03*
X-319088Y-234950D02*
G54D27*
D03*
X-357188Y-234950D02*
G54D27*
D03*
X-319088Y-196850D02*
G54D27*
D03*
X-357188Y-196850D02*
G54D27*
D03*
X-31750Y-31750D02*
G54D28*
D03*
X-19050Y-74612D02*
G54D29*
D03*
X-53975Y-74612D02*
G54D29*
D03*
X-88900Y-74612D02*
G54D29*
D03*
X-19050Y-131762D02*
G54D29*
D03*
X-53975Y-131762D02*
G54D29*
D03*
X-88900Y-131762D02*
G54D29*
D03*
G54D30*
X-88900Y-74612D02*
X-88900Y-131762D01*
G36*
X-113582Y-48721D02*
X-104389Y-39528D01*
X-115703Y-28214D01*
X-124896Y-37407D01*
X-113582Y-48721D01*
G37*
G36*
X-100147Y-35286D02*
X-90954Y-26093D01*
X-102268Y-14779D01*
X-111461Y-23972D01*
X-100147Y-35286D01*
G37*
X-247650Y-66675D02*
G54D31*
D03*
X-247650Y-117475D02*
G54D31*
D03*
X-295275Y-66675D02*
G54D31*
D03*
X-295275Y-117475D02*
G54D31*
D03*
X-200025Y-66675D02*
G54D31*
D03*
X-200025Y-117475D02*
G54D31*
D03*
X-209550Y-304800D02*
G54D32*
D03*
X-209550Y-177800D02*
G54D32*
D03*
X-209550Y-203200D02*
G54D32*
D03*
X-285750Y-177800D02*
G54D32*
D03*
X-285750Y-203200D02*
G54D32*
D03*
X-285750Y-304800D02*
G54D32*
D03*
G54D33*
X-88900Y-85725D02*
X-88900Y-66675D01*
X-138112Y-17462D01*
X-309562Y-17462D01*
X-347662Y-55562D01*
X-347662Y-152400D01*
X-357188Y-161925D01*
X-357188Y-196850D01*
X-369888Y-31750D02*
G54D28*
D03*
X-31750Y-417512D02*
G54D28*
D03*
X-369888Y-417512D02*
G54D28*
D03*
G54D33*
X-247650Y-66675D02*
X-282575Y-34925D01*
X-309562Y-34925D01*
X-333375Y-58738D01*
X-333375Y-160338D01*
X-341312Y-168275D01*
X-341312Y-250825D01*
X-319088Y-273050D01*
G54D33*
X-247650Y-117475D02*
X-271462Y-93662D01*
X-271462Y-57150D01*
X-285750Y-42862D01*
X-306388Y-42862D01*
X-325438Y-61912D01*
X-325438Y-163512D01*
X-333375Y-171450D01*
X-333375Y-220662D01*
X-319088Y-234950D01*
G54D33*
X-200025Y-66675D02*
X-161925Y-66675D01*
X-134938Y-93662D01*
X-134938Y-155575D01*
X-117475Y-173038D01*
X-117475Y-249238D01*
X-141288Y-273050D01*
G54D33*
X-141288Y-234950D02*
X-125412Y-219075D01*
X-125412Y-176212D01*
X-142875Y-158750D01*
X-142875Y-133350D01*
X-158750Y-117475D01*
X-200025Y-117475D01*
G54D33*
X-295275Y-117475D02*
X-234950Y-177800D01*
X-209550Y-177800D01*
G54D33*
X-295275Y-66675D02*
X-317500Y-88900D01*
X-317500Y-146050D01*
X-285750Y-177800D01*
G54D33*
X-357188Y-311150D02*
X-339725Y-293688D01*
X-312738Y-293688D01*
X-285750Y-266700D01*
X-285750Y-203200D01*
G54D33*
X-357188Y-234950D02*
X-392112Y-269875D01*
X-392112Y-327025D01*
X-361950Y-357188D01*
X-193675Y-357188D01*
X-160338Y-323850D01*
X-160338Y-254000D01*
X-179388Y-234950D01*
G54D33*
X-357188Y-273050D02*
X-379412Y-295275D01*
X-379412Y-319088D01*
X-363538Y-334962D01*
X-198438Y-334962D01*
X-179388Y-315912D01*
X-179388Y-273050D01*
X-220745Y-244475D02*
G54D34*
D03*
G36*
X-205445Y-261275D02*
X-215645Y-261275D01*
X-215645Y-273475D01*
X-205445Y-273475D01*
X-205445Y-261275D01*
G37*
G36*
X-225845Y-261275D02*
X-236045Y-261275D01*
X-236045Y-273475D01*
X-225845Y-273475D01*
X-225845Y-261275D01*
G37*
G54D33*
X-209550Y-203200D02*
X-209550Y-233280D01*
X-220745Y-244475D01*
G54D33*
X-319088Y-311150D02*
X-274638Y-266700D01*
X-231775Y-266700D01*
X-248606Y-329740D02*
G54D34*
D03*
X-258806Y-306840D02*
G54D34*
D03*
X-238406Y-306840D02*
G54D34*
D03*
G54D33*
X-230945Y-267375D02*
X-230945Y-299379D01*
X-238406Y-306840D01*
X-259983Y-267334D02*
G54D35*
D03*
X-259983Y-248334D02*
G54D35*
D03*
X-238125Y-203200D02*
G54D36*
D03*
X-257125Y-203200D02*
G54D36*
D03*
G54D33*
X-209550Y-203200D02*
X-238125Y-203200D01*
G54D33*
X-257125Y-203200D02*
X-285750Y-203200D01*
M02*
