M48
M71
T01C0.72
T02C0.8
T03C1.0
T04C3.5
%
G05
T01
X-064290Y-022220
X-067470Y-022220
X-067470Y-014600
X-064290Y-014600
T02
X-003020Y-023020
X-006190Y-023020
X-006190Y-017940
X-003020Y-017940
X-003020Y-012860
X-006190Y-012860
X-006190Y-007940
X-003020Y-007940
X-003020Y-002700
X-006190Y-002700
X-015080Y-021590
X-022070Y-021590
X-073660Y-023810
X-077790Y-023810
X-077630Y-004130
X-074120Y-004130
T03
X-055240Y-015880
X-059690Y-015880
X-059690Y-010160
X-055240Y-010160
T04
X-022070Y-013020
X-044130Y-013020
M30
